<svg xmlns="http://www.w3.org/2000/svg" version="1.1" xmlns:xlink="http://www.w3.org/1999/xlink" xmlns:svgjs="http://svgjs.com/svgjs" width="400" height="900" preserveAspectRatio="none" viewBox="0 0 400 900"><g mask="url(&quot;#SvgjsMask1697&quot;)" fill="none"><path d="M24.36 -81.04L99.71 -37.54L99.71 49.46L24.36 92.96L-50.99 49.46L-50.99 -37.54zM99.71 49.46L175.05 92.96L175.05 179.96L99.71 223.46L24.36 179.96L24.36 92.96zM99.71 571.46L175.05 614.96L175.05 701.96L99.71 745.46L24.36 701.96L24.36 614.96zM24.36 701.96L99.71 745.46L99.71 832.46L24.36 875.96L-50.99 832.46L-50.99 745.46zM175.05 -81.04L250.4 -37.54L250.4 49.46L175.05 92.96L99.71 49.46L99.71 -37.54zM250.4 571.46L325.75 614.96L325.75 701.96L250.4 745.46L175.05 701.96L175.05 614.96zM325.75 -81.04L401.09 -37.54L401.09 49.46L325.75 92.96L250.4 49.46L250.4 -37.54zM401.09 49.46L476.44 92.96L476.44 179.96L401.09 223.46L325.75 179.96L325.75 92.96z" stroke="url(#SvgjsLinearGradient1698)" stroke-width="2"></path></g><defs><mask id="SvgjsMask1697"><rect width="400" height="900" fill="#ffffff"></rect></mask><linearGradient x1="-125" y1="774.99" x2="525" y2="125.00999999999999" gradientUnits="userSpaceOnUse" id="SvgjsLinearGradient1698"><stop stop-color="#0e2a47" offset="0"></stop><stop stop-color="rgba(80, 0, 158, 1)" offset="0.39"></stop><stop stop-color="#00459e" offset="1"></stop></linearGradient></defs></svg>