<?xml version="1.0" encoding="iso-8859-1"?>
<!-- Generator: Adobe Illustrator 19.0.0, SVG Export Plug-In . SVG Version: 6.00 Build 0)  -->
<svg version="1.1" id="Capa_1" xmlns="http://www.w3.org/2000/svg" xmlns:xlink="http://www.w3.org/1999/xlink" x="0px" y="0px"
	 viewBox="0 0 483.001 483.001" style="enable-background:new 0 0 483.001 483.001;" xml:space="preserve">
<g>
	<g>
		<path d="M122.394,479.146c29.3-14.7,59.1-38.2,87.1-64.4c54.3-51,109.2-101.2,161.7-154.5l0.2-0.2c7.3-7.4,7.2-19.3-0.2-26.6
			c-12.8-12.6-25.8-25.2-39-37.5c-7.9-8.4-15.7-16.8-23.6-25.1c-50.4-52.7-101.6-104.6-155.8-153c-15.4-13.8-30.8-22.6-36.1-15.1
			c-4.9,6.8,1.2,21.5,15.5,37.2c25.7,28.1,51.4,56.6,78.6,83.4c41.9,41.4,84.9,81.7,127.4,122.4c-79.4,67-150,145.5-225.4,217.8
			c-3.6,3.4-6.6,11.4-6.6,14.9C106.194,485.146,113.594,483.646,122.394,479.146z"/>
	</g>
</g>
<g>
</g>
<g>
</g>
<g>
</g>
<g>
</g>
<g>
</g>
<g>
</g>
<g>
</g>
<g>
</g>
<g>
</g>
<g>
</g>
<g>
</g>
<g>
</g>
<g>
</g>
<g>
</g>
<g>
</g>
</svg>
